<svg xmlns="http://www.w3.org/2000/svg" width="1080" height="755" viewBox="0 0 1080 755"><rect width="1080" height="755" fill="#f4f6fa"/><rect x="25" y="23" width="1030" height="705" rx="14" fill="#fff" stroke="#dce3ed"/><text x="58" y="61" fill="#64748b" font-family="Arial,Helvetica,sans-serif" font-size="13" font-weight="700">EASY UI  /  EVENT TIMELINE  /  INTERVAL COMPOSITION</text><text x="58" y="99" fill="#1c222d" font-family="Arial,Helvetica,sans-serif" font-size="28" font-weight="700">Optional facility dwell assessment</text><text x="58" y="127" fill="#64748b" font-family="Arial,Helvetica,sans-serif" font-size="14" font-weight="400">Events remain compact; the supplied assessment is attached to the interval.</text><text x="63" y="179" fill="#1c222d" font-family="Arial,Helvetica,sans-serif" font-size="17" font-weight="700">Event chronology</text><text x="710" y="179" fill="#1c222d" font-family="Arial,Helvetica,sans-serif" font-size="17" font-weight="700">Current selection</text><line x1="154" x2="154" y1="222" y2="647" stroke="#a9b6d1" stroke-width="1.5"/><text x="61" y="224" fill="#65738b" font-family="Arial,Helvetica,sans-serif" font-size="13" font-weight="400">09:42</text><circle cx="154" cy="219" r="5" fill="#47547f"/><text x="182" y="224" fill="#1c222d" font-family="Arial,Helvetica,sans-serif" font-size="15" font-weight="700">Accepted</text><text x="182" y="243" fill="#66768e" font-family="Arial,Helvetica,sans-serif" font-size="12" font-weight="400">Origin facility · Oakland, CA</text><text x="61" y="294" fill="#65738b" font-family="Arial,Helvetica,sans-serif" font-size="13" font-weight="400">13:18</text><circle cx="154" cy="289" r="5" fill="#007357"/><text x="182" y="294" fill="#1c222d" font-family="Arial,Helvetica,sans-serif" font-size="15" font-weight="700">Departed</text><text x="182" y="313" fill="#66768e" font-family="Arial,Helvetica,sans-serif" font-size="12" font-weight="400">Oakland, CA</text><rect x="53" y="336" width="602" height="66" rx="7" fill="#f6f9ff"/><text x="61" y="366" fill="#65738b" font-family="Arial,Helvetica,sans-serif" font-size="13" font-weight="400">17:06</text><circle cx="154" cy="361" r="5" fill="#a57b0f"/><circle cx="154" cy="361" r="15" fill="none" stroke="#4571ff" stroke-width="6" opacity=".28"/><text x="182" y="366" fill="#1c222d" font-family="Arial,Helvetica,sans-serif" font-size="15" font-weight="700">Arrived</text><text x="182" y="385" fill="#66768e" font-family="Arial,Helvetica,sans-serif" font-size="12" font-weight="400">Regional hub · Sacramento, CA</text><rect x="180" y="413" width="475" height="174" rx="10" fill="#fbfcff" stroke="#d4deed"/><text x="197" y="440" fill="#62738b" font-family="Arial,Helvetica,sans-serif" font-size="12" font-weight="700">FACILITY DWELL</text><rect x="197" y="450" width="105" height="24" rx="12" fill="#ccfaef"/><text x="209" y="467" fill="#007357" font-family="Arial,Helvetica,sans-serif" font-size="12" font-weight="700">As expected</text><text x="197" y="519" fill="#1c222d" font-family="Arial,Helvetica,sans-serif" font-size="29" font-weight="700">6 hours</text><text x="385" y="500" fill="#007357" font-family="Arial,Helvetica,sans-serif" font-size="12" font-weight="700">P50</text><text x="422" y="500" fill="#007357" font-family="Arial,Helvetica,sans-serif" font-size="12" font-weight="400">9h</text><text x="483" y="500" fill="#a57b0f" font-family="Arial,Helvetica,sans-serif" font-size="12" font-weight="700">P90</text><text x="520" y="500" fill="#a57b0f" font-family="Arial,Helvetica,sans-serif" font-size="12" font-weight="400">18h</text><rect x="199" y="532" width="148" height="24" rx="1" fill="#ccfaef"/><rect x="347" y="532" width="148" height="24" fill="#fff2c4"/><rect x="495" y="532" width="145" height="24" fill="#fedede"/><rect x="201" y="550" width="40" height="6" fill="#007357" opacity=".33"/><rect x="245" y="546" width="40" height="10" fill="#007357" opacity=".33"/><rect x="289" y="539" width="40" height="17" fill="#007357" opacity=".33"/><rect x="333" y="533" width="40" height="23" fill="#a57b0f" opacity=".33"/><rect x="377" y="537" width="40" height="19" fill="#a57b0f" opacity=".33"/><rect x="421" y="542" width="40" height="14" fill="#a57b0f" opacity=".33"/><rect x="465" y="545" width="40" height="11" fill="#a57b0f" opacity=".33"/><rect x="509" y="548" width="40" height="8" fill="#7e2e2d" opacity=".33"/><rect x="553" y="551" width="40" height="5" fill="#7e2e2d" opacity=".33"/><rect x="597" y="553" width="40" height="3" fill="#7e2e2d" opacity=".33"/><path d="M199 553 C260 552 286 533 348 520 S438 500 493 492 S570 487 640 485" fill="none" stroke="#384359" stroke-width="2"/><line x1="288" x2="288" y1="529" y2="557" stroke="#007357" stroke-width="2.5"/><circle cx="288" cy="539" r="4.5" fill="#007357"/><text x="198" y="573" fill="#64748b" font-family="Arial,Helvetica,sans-serif" font-size="10" font-weight="400">0h</text><text x="342" y="573" fill="#64748b" font-family="Arial,Helvetica,sans-serif" font-size="10" font-weight="400">10h</text><text x="490" y="573" fill="#64748b" font-family="Arial,Helvetica,sans-serif" font-size="10" font-weight="400">20h</text><text x="619" y="573" fill="#64748b" font-family="Arial,Helvetica,sans-serif" font-size="10" font-weight="400">30h</text><text x="61" y="638" fill="#65738b" font-family="Arial,Helvetica,sans-serif" font-size="13" font-weight="400">17:06</text><circle cx="154" cy="633" r="5" fill="#7e2e2d"/><text x="182" y="638" fill="#1c222d" font-family="Arial,Helvetica,sans-serif" font-size="15" font-weight="700">Arrived</text><text x="182" y="657" fill="#66768e" font-family="Arial,Helvetica,sans-serif" font-size="12" font-weight="400">Sort facility · Reno, NV  ·  conflicting report</text><rect x="700" y="197" width="310" height="292" rx="10" fill="#fafcff" stroke="#d4deed"/><text x="718" y="225" fill="#64748b" font-family="Arial,Helvetica,sans-serif" font-size="12" font-weight="700">EVENT B1</text><text x="718" y="262" fill="#1c222d" font-family="Arial,Helvetica,sans-serif" font-size="23" font-weight="700">Arrived</text><text x="718" y="286" fill="#64748b" font-family="Arial,Helvetica,sans-serif" font-size="12" font-weight="400">Regional hub · Sacramento, CA</text><line x1="718" x2="992" y1="308" y2="308" stroke="#e2e7f0"/><text x="718" y="341" fill="#64748b" font-family="Arial,Helvetica,sans-serif" font-size="12" font-weight="400">Occurred</text><text x="718" y="367" fill="#1c222d" font-family="Arial,Helvetica,sans-serif" font-size="20" font-weight="700">17:06</text><text x="718" y="395" fill="#64748b" font-family="Arial,Helvetica,sans-serif" font-size="12" font-weight="400">Received 17:14</text><line x1="718" x2="992" y1="411" y2="411" stroke="#e2e7f0"/><text x="718" y="438" fill="#64748b" font-family="Arial,Helvetica,sans-serif" font-size="12" font-weight="400">Map coordination uses event IDs</text><text x="718" y="459" fill="#64748b" font-family="Arial,Helvetica,sans-serif" font-size="12" font-weight="400">and optional location IDs.</text><text x="61" y="699" fill="#64748b" font-family="Arial,Helvetica,sans-serif" font-size="12" font-weight="400">Illustrative synthetic data · optional interval component, not a generated event</text></svg>