<svg xmlns="http://www.w3.org/2000/svg" width="1100" height="620" viewBox="0 0 1100 620"><rect width="1100" height="620" fill="#F5F7FA"/><text x="55" y="46" fill="#60708B" font-family="-apple-system,Segoe UI,Arial,sans-serif" font-size="13" font-weight="700">EASY UI / ATOMS / FEEDBACK</text><text x="55" y="86" fill="#1C2434" font-family="-apple-system,Segoe UI,Arial,sans-serif" font-size="29" font-weight="600">StatusDot · current highlight</text><text x="55" y="111" fill="#61708B" font-family="-apple-system,Segoe UI,Arial,sans-serif" font-size="15" font-weight="400">Status color stays constant; a circular highlight marks the current item.</text><rect x="943" y="58" rx="20" width="105" height="31" fill="#F9FAFD" stroke="#C6D3E8"/><text x="955" y="79" fill="#516482" font-family="-apple-system,Segoe UI,Arial,sans-serif" font-size="12" font-weight="600">DRAFT PR #21</text><rect x="50" y="150" width="490" height="400" rx="14" fill="#FFFFFF" stroke="#DDE4EF"/><text x="75" y="185" fill="#20283A" font-family="-apple-system,Segoe UI,Arial,sans-serif" font-size="18" font-weight="600">Light theme</text><text x="75" y="209" fill="#60718E" font-family="-apple-system,Segoe UI,Arial,sans-serif" font-size="13" font-weight="400">Semantic status and current indicator</text><text x="460" y="209" fill="#60718E" font-family="-apple-system,Segoe UI,Arial,sans-serif" font-size="11" font-weight="400">10px dot</text><text x="75" y="246" fill="#60718E" font-family="-apple-system,Segoe UI,Arial,sans-serif" font-size="12" font-weight="600">Status</text><text x="335" y="246" fill="#60718E" font-family="-apple-system,Segoe UI,Arial,sans-serif" font-size="12" font-weight="600">Default</text><text x="444" y="246" fill="#60718E" font-family="-apple-system,Segoe UI,Arial,sans-serif" font-size="12" font-weight="600">Current</text><line x1="75" x2="516" y1="260" y2="260" stroke="#E3E9F3" stroke-width="1"/><text x="75" y="292" fill="#20283A" font-family="-apple-system,Segoe UI,Arial,sans-serif" font-size="14" font-weight="400">Neutral</text><circle cx="353" cy="288" r="5" fill="#47547F"/><circle cx="453" cy="288" r="15" fill="#D0DBFF" stroke="#4571FF" stroke-width="1.2"/><circle cx="453" cy="288" r="5" fill="#47547F"/><line x1="75" x2="516" y1="311" y2="311" stroke="#E3E9F3" stroke-width="1"/><text x="75" y="343" fill="#20283A" font-family="-apple-system,Segoe UI,Arial,sans-serif" font-size="14" font-weight="400">Success</text><circle cx="353" cy="339" r="5" fill="#007357"/><circle cx="453" cy="339" r="15" fill="#D0DBFF" stroke="#4571FF" stroke-width="1.2"/><circle cx="453" cy="339" r="5" fill="#007357"/><line x1="75" x2="516" y1="362" y2="362" stroke="#E3E9F3" stroke-width="1"/><text x="75" y="394" fill="#20283A" font-family="-apple-system,Segoe UI,Arial,sans-serif" font-size="14" font-weight="400">Warning</text><circle cx="353" cy="390" r="5" fill="#A57B0F"/><circle cx="453" cy="390" r="15" fill="#D0DBFF" stroke="#4571FF" stroke-width="1.2"/><circle cx="453" cy="390" r="5" fill="#A57B0F"/><line x1="75" x2="516" y1="413" y2="413" stroke="#E3E9F3" stroke-width="1"/><text x="75" y="445" fill="#20283A" font-family="-apple-system,Segoe UI,Arial,sans-serif" font-size="14" font-weight="400">Danger</text><circle cx="353" cy="441" r="5" fill="#7E2E2D"/><circle cx="453" cy="441" r="15" fill="#D0DBFF" stroke="#4571FF" stroke-width="1.2"/><circle cx="453" cy="441" r="5" fill="#7E2E2D"/><line x1="75" x2="516" y1="464" y2="464" stroke="#E3E9F3" stroke-width="1"/><text x="75" y="496" fill="#20283A" font-family="-apple-system,Segoe UI,Arial,sans-serif" font-size="14" font-weight="400">Primary</text><circle cx="353" cy="492" r="5" fill="#113ABF"/><circle cx="453" cy="492" r="15" fill="#D0DBFF" stroke="#4571FF" stroke-width="1.2"/><circle cx="453" cy="492" r="5" fill="#113ABF"/><rect x="560" y="150" width="490" height="400" rx="14" fill="#20293A" stroke="#46546E"/><text x="585" y="185" fill="#E9EDF8" font-family="-apple-system,Segoe UI,Arial,sans-serif" font-size="18" font-weight="600">Dark theme</text><text x="585" y="209" fill="#9FAEC6" font-family="-apple-system,Segoe UI,Arial,sans-serif" font-size="13" font-weight="400">Semantic status and current indicator</text><text x="970" y="209" fill="#9FAEC6" font-family="-apple-system,Segoe UI,Arial,sans-serif" font-size="11" font-weight="400">10px dot</text><text x="585" y="246" fill="#9FAEC6" font-family="-apple-system,Segoe UI,Arial,sans-serif" font-size="12" font-weight="600">Status</text><text x="845" y="246" fill="#9FAEC6" font-family="-apple-system,Segoe UI,Arial,sans-serif" font-size="12" font-weight="600">Default</text><text x="954" y="246" fill="#9FAEC6" font-family="-apple-system,Segoe UI,Arial,sans-serif" font-size="12" font-weight="600">Current</text><line x1="585" x2="1026" y1="260" y2="260" stroke="#39475C" stroke-width="1"/><text x="585" y="292" fill="#E9EDF8" font-family="-apple-system,Segoe UI,Arial,sans-serif" font-size="14" font-weight="400">Neutral</text><circle cx="863" cy="288" r="5" fill="#a3b2ce"/><circle cx="963" cy="288" r="15" fill="#22365c" stroke="#4c7bff" stroke-width="1.2"/><circle cx="963" cy="288" r="5" fill="#a3b2ce"/><line x1="585" x2="1026" y1="311" y2="311" stroke="#39475C" stroke-width="1"/><text x="585" y="343" fill="#E9EDF8" font-family="-apple-system,Segoe UI,Arial,sans-serif" font-size="14" font-weight="400">Success</text><circle cx="863" cy="339" r="5" fill="#ccfaef"/><circle cx="963" cy="339" r="15" fill="#22365c" stroke="#4c7bff" stroke-width="1.2"/><circle cx="963" cy="339" r="5" fill="#ccfaef"/><line x1="585" x2="1026" y1="362" y2="362" stroke="#39475C" stroke-width="1"/><text x="585" y="394" fill="#E9EDF8" font-family="-apple-system,Segoe UI,Arial,sans-serif" font-size="14" font-weight="400">Warning</text><circle cx="863" cy="390" r="5" fill="#fff8df"/><circle cx="963" cy="390" r="15" fill="#22365c" stroke="#4c7bff" stroke-width="1.2"/><circle cx="963" cy="390" r="5" fill="#fff8df"/><line x1="585" x2="1026" y1="413" y2="413" stroke="#39475C" stroke-width="1"/><text x="585" y="445" fill="#E9EDF8" font-family="-apple-system,Segoe UI,Arial,sans-serif" font-size="14" font-weight="400">Danger</text><circle cx="863" cy="441" r="5" fill="#fedede"/><circle cx="963" cy="441" r="15" fill="#22365c" stroke="#4c7bff" stroke-width="1.2"/><circle cx="963" cy="441" r="5" fill="#fedede"/><line x1="585" x2="1026" y1="464" y2="464" stroke="#39475C" stroke-width="1"/><text x="585" y="496" fill="#E9EDF8" font-family="-apple-system,Segoe UI,Arial,sans-serif" font-size="14" font-weight="400">Primary</text><circle cx="863" cy="492" r="5" fill="#8caaff"/><circle cx="963" cy="492" r="15" fill="#22365c" stroke="#4c7bff" stroke-width="1.2"/><circle cx="963" cy="492" r="5" fill="#8caaff"/><text x="55" y="588" fill="#2C3950" font-family="-apple-system,Segoe UI,Arial,sans-serif" font-size="13" font-weight="700">One-shot emphasis</text><text x="192" y="588" fill="#5C6B86" font-family="-apple-system,Segoe UI,Arial,sans-serif" font-size="13" font-weight="400">·    260ms transition    ·    Reduced-motion support    ·    No layout shift</text></svg>